<mxfile host="app.diagrams.net" modified="2023-07-11T10:43:24.425Z" agent="Mozilla/5.0 (Macintosh; Intel Mac OS X 10_15_7) AppleWebKit/537.36 (KHTML, like Gecko) Chrome/114.0.0.0 Whale/3.21.192.18 Safari/537.36" version="21.6.1" etag="_IuAovpz96ZeQBpJenpi" type="github">
  <diagram name="페이지-1" id="sutYoR3Eftfbvv-lTONB">
    <mxGraphModel>
      <root>
        <mxCell id="0" />
        <mxCell id="1" parent="0" />
      </root>
    </mxGraphModel>
  </diagram>
</mxfile>
